<svg width="152" height="43" viewBox="0 0 152 43" fill="none" xmlns="http://www.w3.org/2000/svg">
<path d="M63.1245 27.4717C63.1245 26.5033 62.7827 25.7627 62.0991 25.25C61.4155 24.7259 60.1851 24.179 58.4077 23.6094C56.6304 23.0283 55.2233 22.4587 54.1865 21.9004C51.361 20.3737 49.9482 18.3172 49.9482 15.731C49.9482 14.3866 50.3242 13.1903 51.0762 12.1421C51.8395 11.0825 52.9276 10.2565 54.3403 9.66406C55.7645 9.07161 57.3595 8.77539 59.1255 8.77539C60.9028 8.77539 62.4865 9.1001 63.8765 9.74951C65.2664 10.3875 66.3431 11.2933 67.1064 12.4668C67.8812 13.6403 68.2686 14.9733 68.2686 16.4658H63.1416C63.1416 15.3265 62.7827 14.4435 62.0649 13.8169C61.3472 13.1789 60.3389 12.8599 59.04 12.8599C57.7868 12.8599 56.8127 13.1276 56.1177 13.6631C55.4227 14.1872 55.0752 14.8822 55.0752 15.748C55.0752 16.557 55.4797 17.2349 56.2886 17.7817C57.1089 18.3286 58.3109 18.8413 59.8945 19.3198C62.8112 20.1971 64.936 21.2852 66.269 22.584C67.6021 23.8828 68.2686 25.5007 68.2686 27.4375C68.2686 29.5908 67.4539 31.2827 65.8247 32.5132C64.1955 33.7323 62.0023 34.3418 59.2451 34.3418C57.3311 34.3418 55.5879 33.9943 54.0156 33.2993C52.4434 32.5929 51.2414 31.6302 50.4097 30.4111C49.5894 29.1921 49.1792 27.7793 49.1792 26.1729H54.3232C54.3232 28.9186 55.9639 30.2915 59.2451 30.2915C60.4642 30.2915 61.4155 30.0465 62.0991 29.5566C62.7827 29.0553 63.1245 28.3604 63.1245 27.4717ZM75.4818 25.2329V34H70.3549V9.11719H80.0619C81.9304 9.11719 83.571 9.45898 84.9838 10.1426C86.4079 10.8262 87.5017 11.8003 88.265 13.0649C89.0284 14.3182 89.4101 15.748 89.4101 17.3545C89.4101 19.7926 88.5727 21.7181 86.8979 23.1309C85.2344 24.5322 82.9273 25.2329 79.9765 25.2329H75.4818ZM75.4818 21.0801H80.0619C81.4177 21.0801 82.4488 20.7611 83.1552 20.123C83.8729 19.485 84.2318 18.5736 84.2318 17.3887C84.2318 16.1696 83.8729 15.1841 83.1552 14.4321C82.4374 13.6802 81.4462 13.2928 80.1815 13.27H75.4818V21.0801ZM102.554 28.873H93.5643L91.8553 34H86.4036L95.6663 9.11719H100.417L109.731 34H104.28L102.554 28.873ZM94.9485 24.7202H101.169L98.0418 15.4062L94.9485 24.7202ZM119.867 24.8911H115.782V34H110.655V9.11719H119.901C122.841 9.11719 125.108 9.7723 126.703 11.0825C128.298 12.3927 129.095 14.2441 129.095 16.6367C129.095 18.3343 128.725 19.7528 127.985 20.8921C127.255 22.02 126.145 22.9201 124.652 23.5923L130.035 33.7607V34H124.532L119.867 24.8911ZM115.782 20.7383H119.918C121.206 20.7383 122.203 20.4136 122.909 19.7642C123.615 19.1034 123.968 18.1976 123.968 17.0469C123.968 15.8734 123.632 14.9505 122.96 14.2783C122.299 13.6061 121.28 13.27 119.901 13.27H115.782V20.7383ZM139.402 24.0195L136.736 26.8906V34H131.609V9.11719H136.736V20.3965L138.992 17.3032L145.332 9.11719H151.638L142.803 20.1743L151.895 34H145.794L139.402 24.0195Z" fill="#00002B"/>
<ellipse cx="21.3567" cy="21.5" rx="21.3567" ry="21.5" fill="#00002B"/>
<path d="M23.3764 31.9482C22.6079 33.2882 20.675 33.2882 19.9065 31.9482L12.0152 18.1883C11.2505 16.855 12.2131 15.1933 13.7501 15.1933L29.5327 15.1933C31.0697 15.1933 32.0323 16.855 31.2676 18.1883L23.3764 31.9482Z" fill="#F59E0B"/>
</svg>
